<?xml version="1.0" encoding="UTF-8"?><svg id="Layer_1" xmlns="http://www.w3.org/2000/svg" viewBox="0 0 3537.75 502.4"><g id="Artwork_28"><g><g><g><path d="m3460.94,235.23c0,2.36-.72,4.37-2.14,6.02-1.43,1.65-3.44,2.79-6.02,3.41v.16c3.05.38,5.36,1.3,6.92,2.78,1.57,1.47,2.35,3.46,2.35,5.95,0,3.63-1.32,6.46-3.95,8.49-2.64,2.02-6.4,3.04-11.29,3.04-4.1,0-7.73-.68-10.9-2.04v-6.79c1.46.74,3.07,1.34,4.83,1.81s3.5.7,5.22.7c2.64,0,4.58-.45,5.84-1.34,1.26-.9,1.89-2.34,1.89-4.32,0-1.77-.72-3.03-2.17-3.77-1.45-.74-3.75-1.11-6.92-1.11h-2.87v-6.12h2.92c2.93,0,5.07-.38,6.42-1.15,1.35-.77,2.03-2.08,2.03-3.94,0-2.86-1.79-4.28-5.37-4.28-1.24,0-2.5.21-3.79.62-1.28.41-2.71,1.12-4.27,2.14l-3.69-5.5c3.44-2.48,7.55-3.72,12.32-3.72,3.91,0,7,.79,9.26,2.38,2.26,1.59,3.4,3.79,3.4,6.61Z"/><path d="m3467.11,260.85c0-1.45.39-2.54,1.16-3.28s1.9-1.11,3.38-1.11,2.54.38,3.32,1.14c.78.76,1.17,1.84,1.17,3.25s-.4,2.44-1.19,3.22c-.79.78-1.89,1.18-3.31,1.18s-2.57-.39-3.36-1.15c-.79-.77-1.19-1.84-1.19-3.24Z"/><path d="m3501.03,264.55h-7.98v-21.86l.08-3.59.13-3.93c-1.33,1.32-2.25,2.19-2.76,2.61l-4.34,3.49-3.85-4.81,12.17-9.69h6.56v37.77Z"/><path d="m3537.75,242.9c0,7.44-1.57,12.99-4.7,16.67-3.13,3.66-7.88,5.5-14.24,5.5-2.24,0-3.93-.12-5.09-.36v-6.41c1.45.36,2.96.54,4.55.54,2.67,0,4.86-.39,6.59-1.18,1.72-.78,3.04-2.02,3.95-3.7.91-1.68,1.44-3.99,1.58-6.94h-.31c-1,1.62-2.15,2.75-3.46,3.41-1.31.66-2.95.98-4.91.98-3.29,0-5.88-1.05-7.78-3.16-1.89-2.11-2.84-5.04-2.84-8.8,0-4.05,1.15-7.25,3.45-9.59,2.3-2.35,5.43-3.53,9.39-3.53,2.79,0,5.23.66,7.32,1.96,2.09,1.31,3.7,3.21,4.82,5.7,1.12,2.49,1.68,5.45,1.68,8.9Zm-13.67-10.16c-1.65,0-2.95.57-3.88,1.71-.93,1.14-1.4,2.77-1.4,4.9,0,1.83.42,3.28,1.27,4.34.84,1.07,2.13,1.61,3.85,1.61,1.62,0,3-.53,4.16-1.59,1.15-1.06,1.73-2.28,1.73-3.66,0-2.05-.54-3.78-1.62-5.19-1.08-1.41-2.45-2.12-4.12-2.12Z"/></g><rect x="3425.21" y="123.24" width="73.69" height="3.59"/><rect x="3425.21" y="365.96" width="73.69" height="3.59"/><path d="m3000.51,502.4c-24.44,0-48.65-6.23-70-18l-2.86-1.58,11.51-26.61,3.49,2c17.59,10.09,37.59,15.43,57.86,15.43,32.19,0,63.28-13.54,85.31-37.16,22.32-23.93,33.36-55.12,31.08-87.84-4.02-57.71-50.59-104.18-108.32-108.08-33.32-2.25-66.08,9.9-89.87,33.32l-2.95,2.91-17.24-23.39,2.32-2.19c28.59-26.97,65.94-41,105.13-39.59,73.22,2.69,134.55,61.99,139.63,134.99,2.83,40.76-10.93,79.64-38.74,109.46-27.45,29.43-66.2,46.3-106.32,46.3Zm-63.65-22.75c19.58,10.19,41.52,15.57,63.65,15.57,38.13,0,74.97-16.05,101.07-44.02,26.44-28.35,39.52-65.3,36.83-104.05-4.82-69.39-63.12-125.75-132.72-128.31h0c-36.21-1.35-70.73,11.25-97.6,35.48l8.56,11.61c24.97-23,58.39-34.82,92.4-32.52,61.3,4.14,110.74,53.47,115.01,114.75,2.42,34.72-9.3,67.83-32.99,93.24-23.38,25.07-56.39,39.44-90.56,39.44-20.18,0-40.12-4.98-57.92-14.44l-5.73,13.25Z"/><g><path d="m3405.43,115.92L3204.66,0l-.09.05-200.68,115.86-12.59,7.27v92.76l25.16.42v-64.14l175.62,101.39v202.8l-64.83-37.43-12.91,21.6,65.16,37.62,25.07,14.48v.1l.09-.05h0s0,0,0,0l25.16-14.53,188.19-108.66V123.19l-12.59-7.27Zm-200.77,115.92l-.09-.05-175.52-101.34,175.52-101.34.09-.05,175.61,101.39-175.61,101.39Zm188.2,123.19l-175.62,101.39v-202.8l175.62-101.39v202.8Z"/><polygon points="3016.46 297.32 2991.3 297.32 2991.3 369.55 3057.34 407.69 3069.92 385.9 3016.46 355.03 3016.46 297.32"/></g><path d="m2907.33,343.76h-125.11v-30.75h125.11v30.75Zm-117.92-7.19h110.73v-16.37h-110.73v16.37Z"/><path d="m2907.33,395.64h-95.75v-30.63h95.75v30.63Zm-88.56-7.19h81.37v-16.25h-81.37v16.25Z"/><path d="m2907.33,444.37h-57.58v-30.82h57.58v30.82Zm-50.39-7.19h43.2v-16.44h-43.2v16.44Z"/><polygon points="3494.7 337.78 3494.71 337.74 3486.78 337.74 3486.78 283.86 3483.93 283.86 3481.08 283.86 3481.08 337.74 3473.14 337.74 3473.16 337.78 3484.23 365.73 3484.31 365.96 3494.03 339.6 3494.71 337.78 3494.7 337.78"/><polygon points="3473.16 155.01 3473.14 155.04 3481.08 155.04 3481.08 208.93 3483.93 208.93 3486.78 208.93 3486.78 155.04 3494.71 155.04 3494.7 155.01 3483.63 127.05 3483.54 126.83 3473.83 153.19 3473.14 155.01 3473.16 155.01"/></g><g><path d="m112.82,373.9c-36.11,0-64.26-10.71-83.68-31.84C9.8,321.02,0,290.41,0,251.06c0-24.58,4.72-46.53,14.02-65.25,9.38-18.87,23.08-33.6,40.72-43.76,17.56-10.12,38.44-15.25,62.05-15.25,25.61,0,50.43,5.64,73.77,16.77l3.41,1.63-22.19,57.03-3.94-1.85c-8.38-3.93-16.88-7.29-25.27-9.98-8.15-2.61-17.04-3.94-26.42-3.94-13.64,0-23.98,5.43-31.62,16.59-7.86,11.49-11.85,27.76-11.85,48.34,0,42.41,15.36,63.02,46.96,63.02,9.84,0,19.51-1.39,28.73-4.12,9.49-2.82,19.14-6.25,28.7-10.19l5.62-2.32v61.84l-2.42,1.07c-19.83,8.78-42.53,13.23-67.47,13.23Zm3.97-238.96c-22.16,0-41.67,4.77-57.99,14.16-16.22,9.35-28.84,22.92-37.5,40.34-8.74,17.58-13.17,38.31-13.17,61.62,0,37.24,9.08,66,26.99,85.48,17.81,19.38,43.95,29.21,77.69,29.21,22.78,0,43.54-3.86,61.75-11.49v-44.4c-7.97,3.11-15.97,5.87-23.87,8.21-9.98,2.96-20.42,4.46-31.05,4.46-36.56,0-55.1-23.94-55.1-71.16,0-22.25,4.47-40.06,13.27-52.93,9.13-13.36,22.03-20.14,38.34-20.14,10.23,0,19.95,1.46,28.91,4.33,7.4,2.38,14.88,5.25,22.28,8.56l16.29-41.86c-21.24-9.55-43.71-14.39-66.84-14.39Z"/><g><path d="m343.49,129.18h-89.69l-78.48,241.53h77.72l11.76-43.56h69.26l11.45,43.56h77.44l-79.47-241.53Zm-3.15,189.83h-81.77l-11.76,43.56h-60.28l73.19-225.25h77.88l74.11,225.25h-59.92l-11.45-43.56Z"/><path d="m309.62,209.86c-3.32-11.53-5.53-19.87-6.56-24.79l-4.07-19.35-3.96,19.36c-.93,4.55-2.82,12.26-5.62,22.92-2.79,10.61-9.08,31.87-18.69,63.22l-1.35,4.42h60.15l-11.39-37.43c-2.31-7.22-5.17-16.76-8.5-28.36Zm-29.66,58.75c8.88-29.02,14.73-48.87,17.41-59.05.65-2.49,1.26-4.8,1.8-6.95.75,2.72,1.59,5.7,2.53,8.94,3.35,11.65,6.23,21.25,8.54,28.49l8.7,28.57h-38.98Z"/></g><path d="m499.74,370.72h-79.27v-240.58h84.52c38.2,0,68.21,10,89.2,29.72,21.05,19.79,31.73,48.6,31.73,85.64,0,39.74-11.19,70.89-33.25,92.57-22.05,21.66-53.31,32.65-92.92,32.65Zm-71.13-8.14h71.13c37.4,0,66.74-10.2,87.21-30.31,20.45-20.1,30.82-49.29,30.82-86.77,0-34.7-9.81-61.52-29.16-79.71-19.42-18.26-47.56-27.51-83.62-27.51h-76.38v224.3Zm72.72-43.37h-18.06v-138.35h22.35c18.37,0,32.34,5.69,41.54,16.91,9,10.98,13.56,27.79,13.56,49.96,0,23.64-4.8,41.58-14.25,53.35-9.67,12.03-24.86,18.13-45.14,18.13Zm-9.92-8.14h9.92c17.7,0,30.75-5.08,38.8-15.09,8.27-10.28,12.46-26.51,12.46-48.25,0-20.24-3.94-35.31-11.72-44.8-7.68-9.37-19.22-13.93-35.25-13.93h-14.21v122.07Z"/><path d="m825.3,182.38c-14.94,0-26.61,6.12-34.98,18.36-8.37,12.24-12.56,29.12-12.56,50.64,0,44.73,17.01,67.09,51.03,67.09,10.28,0,20.24-1.43,29.89-4.29,9.64-2.86,19.34-6.3,29.09-10.33v53.1c-19.4,8.59-41.34,12.88-65.82,12.88-35.08,0-61.98-10.18-80.68-30.53-18.71-20.35-28.06-49.76-28.06-88.24,0-24.06,4.53-45.2,13.59-63.44,9.06-18.23,22.1-32.25,39.11-42.05,17.01-9.8,37.02-14.71,60.02-14.71,25.12,0,49.13,5.46,72.02,16.38l-19.24,49.44c-8.59-4.03-17.17-7.42-25.76-10.18-8.59-2.75-17.81-4.13-27.66-4.13Z"/><path d="m1114.39,366.65h-63.12v-94.76h-72.97v94.76h-63.12v-232.44h63.12v86.17h72.97v-86.17h63.12v232.44Z"/><path d="m1289.33,366.65l-11.45-43.56h-75.52l-11.76,43.56h-69l75.84-233.39h83.79l76.79,233.39h-68.68Zm-24.48-95.08l-10.02-38.16c-2.33-8.48-5.17-19.45-8.51-32.91-3.34-13.46-5.54-23.1-6.6-28.94-.95,5.41-2.84,14.31-5.64,26.71-2.81,12.4-9.04,36.83-18.68,73.29h49.44Z"/><path d="m1365.23,366.65v-232.44h62.8v181.72h89.51v50.72h-152.31Z"/><path d="m1536.83,366.65v-232.44h62.8v181.72h89.51v50.72h-152.31Z"/><path d="m1846.43,366.65h-138v-232.44h138v50.4h-75.2v36.57h69.63v50.4h-69.63v43.88h75.2v51.2Z"/><path d="m2090.53,366.65h-82.35l-84.9-163.76h-1.43c2.01,25.76,3.02,45.42,3.02,58.98v104.77h-55.64v-232.44h82.04l84.58,161.53h.95c-1.49-23.42-2.23-42.23-2.23-56.44v-105.09h55.96v232.44Z"/><path d="m2216.18,230.55h100.32v125.28c-27.24,9.33-57.18,13.99-89.83,13.99-35.83,0-63.51-10.39-83.07-31.16-19.56-20.77-29.33-50.4-29.33-88.87s10.7-66.72,32.12-87.6c21.41-20.88,51.4-31.32,89.99-31.32,14.63,0,28.43,1.38,41.42,4.13,12.98,2.76,24.3,6.26,33.94,10.49l-19.87,49.29c-16.75-8.27-35.14-12.4-55.17-12.4-18.34,0-32.51,5.96-42.53,17.89-10.02,11.92-15.02,28.96-15.02,51.11s4.53,38.29,13.59,49.68c9.06,11.4,22.12,17.09,39.19,17.09,9.32,0,17.91-.9,25.76-2.7v-36.41h-41.5v-48.49Z"/><path d="m2483.97,366.65h-138v-232.44h138v50.4h-75.2v36.57h69.64v50.4h-69.64v43.88h75.2v51.2Z"/><path d="m2658.75,296.05c0,14.42-3.66,27.22-10.97,38.4-7.31,11.18-17.86,19.87-31.64,26.07-13.78,6.2-29.94,9.3-48.49,9.3-15.48,0-28.46-1.09-38.95-3.26-10.49-2.17-21.41-5.96-32.75-11.37v-55.96c11.98,6.15,24.43,10.95,37.36,14.39,12.93,3.45,24.8,5.17,35.61,5.17,9.32,0,16.16-1.61,20.51-4.85,4.34-3.23,6.52-7.39,6.52-12.48,0-3.18-.87-5.96-2.62-8.35-1.75-2.38-4.56-4.79-8.43-7.23-3.87-2.44-14.18-7.42-30.92-14.94-15.16-6.89-26.53-13.57-34.1-20.03-7.58-6.46-13.2-13.88-16.85-22.26-3.66-8.37-5.48-18.28-5.48-29.73,0-21.41,7.79-38.1,23.37-50.08,15.58-11.98,36.99-17.97,64.23-17.97,24.06,0,48.59,5.56,73.61,16.69l-19.24,48.49c-21.73-9.96-40.49-14.94-56.28-14.94-8.16,0-14.1,1.43-17.81,4.29-3.71,2.86-5.56,6.42-5.56,10.65,0,4.56,2.36,8.64,7.07,12.24,4.71,3.6,17.51,10.18,38.39,19.71,20.03,9.01,33.94,18.68,41.73,29.01,7.79,10.33,11.69,23.35,11.69,39.03Z"/><circle cx="667.53" cy="340.03" r="30.82"/><g><g><path d="m391.01,477.97c0,6.25-1.55,11.06-4.65,14.41-3.1,3.36-7.54,5.04-13.33,5.04-3.39,0-6.29-.56-8.68-1.68l-2.33,3.49-4.19-2.79,2.33-3.51c-3.41-3.34-5.12-8.34-5.12-15.01,0-6.28,1.55-11.09,4.66-14.4,3.11-3.31,7.56-4.97,13.37-4.97,3.41,0,6.37.6,8.89,1.8l2.17-3.23,4.13,2.69-2.27,3.39c3.34,3.34,5.01,8.27,5.01,14.78Zm-27.57,0c0,3.29.48,5.93,1.45,7.93l13.07-19.53c-1.45-.78-3.07-1.16-4.88-1.16-3.19,0-5.59,1.07-7.21,3.22-1.62,2.14-2.43,5.33-2.43,9.55Zm19.17,0c0-3.1-.44-5.66-1.32-7.68l-12.92,19.4c1.31.68,2.86,1.01,4.65,1.01,6.39,0,9.58-4.24,9.58-12.73Z"/><path d="m428.09,496.9h-7.98v-21.86l.08-3.59.13-3.93c-1.33,1.32-2.25,2.19-2.76,2.61l-4.34,3.49-3.85-4.81,12.17-9.69h6.56v37.77Z"/><path d="m438.67,493.21c0-1.45.39-2.54,1.16-3.28.78-.74,1.9-1.11,3.38-1.11s2.54.38,3.32,1.14c.78.76,1.17,1.84,1.17,3.25s-.4,2.44-1.19,3.22-1.89,1.18-3.31,1.18-2.57-.39-3.36-1.15-1.19-1.84-1.19-3.24Z"/><path d="m478.46,496.9h-26.4v-5.56l9.48-9.58c2.81-2.88,4.64-4.87,5.5-5.98.86-1.11,1.48-2.14,1.86-3.08.38-.95.57-1.93.57-2.95,0-1.51-.42-2.64-1.25-3.38-.84-.74-1.95-1.11-3.35-1.11-1.46,0-2.89.33-4.26,1.01-1.38.67-2.82,1.63-4.31,2.87l-4.34-5.14c1.86-1.59,3.4-2.7,4.62-3.36,1.22-.66,2.56-1.16,4-1.51,1.45-.35,3.07-.53,4.86-.53,2.36,0,4.44.43,6.25,1.3,1.81.86,3.21,2.07,4.21,3.62,1,1.55,1.5,3.32,1.5,5.32,0,1.74-.31,3.37-.92,4.9-.61,1.53-1.56,3.09-2.84,4.69-1.28,1.6-3.55,3.88-6.78,6.84l-4.86,4.57v.36h16.46v6.72Z"/><path d="m501.2,496.9h-7.98v-21.86l.08-3.59.13-3.93c-1.33,1.32-2.25,2.19-2.76,2.61l-4.34,3.49-3.85-4.81,12.17-9.69h6.56v37.77Z"/></g><polygon points="628.76 390.95 627.29 392.28 627.13 392.43 635.07 396.57 593.42 475.07 515.5 475.07 515.5 482.45 597.65 482.45 601.33 475.38 601.49 475.07 640.78 399.58 640.8 399.59 640.81 399.55 648.77 403.69 648.79 403.47 652.26 369.83 628.76 390.95"/></g></g></g></g></svg>